<?xml version="1.0" standalone="no"?><svg xmlns="http://www.w3.org/2000/svg" viewBox="0 0 1440 320"><path fill="#0099ff" fill-opacity="1" d="M0,192L40,192C80,192,160,192,240,202.7C320,213,400,235,480,218.7C560,203,640,149,720,144C800,139,880,181,960,202.7C1040,224,1120,224,1200,218.7C1280,213,1360,203,1400,197.3L1440,192L1440,320L1400,320C1360,320,1280,320,1200,320C1120,320,1040,320,960,320C880,320,800,320,720,320C640,320,560,320,480,320C400,320,320,320,240,320C160,320,80,320,40,320L0,320Z"></path></svg>